<svg width="24" height="24" viewBox="0 0 24 24" fill="none" xmlns="http://www.w3.org/2000/svg">
<path d="M11.9993 22.63C11.3293 22.63 10.6493 22.48 10.1193 22.17L4.61926 19C2.37926 17.49 2.23926 17.26 2.23926 14.89V9.10999C2.23926 6.73999 2.36926 6.50999 4.56926 5.01999L10.1093 1.81999C11.1593 1.20999 12.8093 1.20999 13.8593 1.81999L19.3793 4.99999C21.6193 6.50999 21.7593 6.73999 21.7593 9.10999V14.88C21.7593 17.25 21.6293 17.48 19.4293 18.97L13.8893 22.17C13.3493 22.48 12.6693 22.63 11.9993 22.63ZM11.9993 2.86999C11.5793 2.86999 11.1693 2.94999 10.8793 3.11999L5.37926 6.29999C3.74926 7.39999 3.74926 7.39999 3.74926 9.10999V14.88C3.74926 16.59 3.74926 16.59 5.41926 17.72L10.8793 20.87C11.4693 21.21 12.5393 21.21 13.1293 20.87L18.6293 17.69C20.2493 16.59 20.2493 16.59 20.2493 14.88V9.10999C20.2493 7.39999 20.2493 7.39999 18.5793 6.26999L13.1193 3.11999C12.8293 2.94999 12.4193 2.86999 11.9993 2.86999Z" fill="#85868B"/>
<path d="M11.9993 15.75C9.92927 15.75 8.24927 14.07 8.24927 12C8.24927 9.93 9.92927 8.25 11.9993 8.25C14.0693 8.25 15.7493 9.93 15.7493 12C15.7493 14.07 14.0693 15.75 11.9993 15.75ZM11.9993 9.75C10.7593 9.75 9.74927 10.76 9.74927 12C9.74927 13.24 10.7593 14.25 11.9993 14.25C13.2393 14.25 14.2493 13.24 14.2493 12C14.2493 10.76 13.2393 9.75 11.9993 9.75Z" fill="#85868B"/>
</svg>
